<?xml version="1.0" encoding="utf-8"?>
<!-- Generator: Adobe Illustrator 24.1.0, SVG Export Plug-In . SVG Version: 6.00 Build 0)  -->
<svg version="1.1" id="Layer_1" xmlns="http://www.w3.org/2000/svg" xmlns:xlink="http://www.w3.org/1999/xlink" x="0px" y="0px"
	 viewBox="0 0 594 480" style="enable-background:new 0 0 594 480;" xml:space="preserve">
<style type="text/css">
	.st0{fill:url(#SVGID_1_);}
	.st1{fill:url(#SVGID_2_);}
	.st2{fill:#B3B3B3;}
	.st3{fill:#1A181C;}
	.st4{fill:url(#SVGID_3_);}
	.st5{fill:url(#SVGID_4_);}
	.st6{fill:url(#SVGID_5_);}
	.st7{fill:url(#SVGID_6_);}
	.st8{fill:url(#SVGID_7_);}
	.st9{fill:url(#SVGID_8_);}
	.st10{fill:url(#SVGID_9_);}
	.st11{fill:url(#SVGID_10_);}
	.st12{fill:url(#SVGID_11_);}
	.st13{fill:url(#SVGID_12_);}
	.st14{fill:url(#SVGID_13_);}
	.st15{fill:url(#SVGID_14_);}
	.st16{fill:url(#SVGID_15_);}
	.st17{fill:url(#SVGID_16_);}
	.st18{fill:url(#SVGID_17_);}
	.st19{fill:url(#SVGID_18_);}
	.st20{fill:#F2F2F2;}
	.st21{fill:url(#SVGID_19_);}
	.st22{fill:url(#SVGID_20_);}
	.st23{fill:url(#SVGID_21_);}
	.st24{fill:url(#SVGID_22_);}
	.st25{fill:url(#SVGID_23_);}
	.st26{fill:#E6E6E6;}
	.st27{fill:url(#SVGID_24_);}
	.st28{fill:url(#SVGID_25_);}
	.st29{fill:#808080;}
	.st30{fill:url(#SVGID_26_);}
	.st31{fill:#FFFFFF;}
	.st32{stroke:#000000;stroke-width:22.1636;}
	.st33{stroke:#FFFFFF;stroke-width:11.0818;}
	.st34{fill:url(#SVGID_27_);}
</style>
<g id="Flame_3">
	<g>
		<g>
			
				<linearGradient id="SVGID_1_" gradientUnits="userSpaceOnUse" x1="285.7468" y1="217.4473" x2="287.4478" y2="751.4888" gradientTransform="matrix(-0.4251 0.9052 -0.9052 -0.4251 796.4084 97.6751)">
				<stop  offset="0" style="stop-color:#E42326"/>
				<stop  offset="1" style="stop-color:#FBAD18"/>
			</linearGradient>
			<path class="st0" d="M468.7,280.5c-21.3,33.8-70.6,69.9-99.7,76.8c-40.5,9.6-70.9,5.5-92.5-5.4c9.5,2.7,40.5,1,57.5-14.4
				c-35,16.7-141.9,5.4-205.6-93.3c11,11.9,56.2,39.8,124.7,25.6c-38.8,8.1-134.5-17.3-204.8-130.7c5.6,5.3,17.3,19.5,47.8,22.8
				C66.4,150.3,3.4,81.5,7.5,9.8c30.5,71.9,110.2,73.3,160,75c25.5,0.9,42.4,12.8,57.5,19c-11.8-7.4-60.5-26.1-72.3-68.2
				c7,13.1,34.7,24,55.6,21c28.9-4.3,104.9-42,151.9,21.8c3-9.9-13.5-36.2-45.7-42.5c55.2-10.4,97.7,44,104.4,66.1
				c5.3-32.1-22.3-58.8-30-61.5c14.7,6.9,31.1,17.1,40.9,27.5c82.4,87.6,57.8,169.9,41.6,207L468.7,280.5z"/>
		</g>
		<g>
			
				<linearGradient id="SVGID_2_" gradientUnits="userSpaceOnUse" x1="306.6118" y1="220.67" x2="318.5172" y2="644.1621" gradientTransform="matrix(-0.4251 0.9052 -0.9052 -0.4251 796.4084 97.6751)">
				<stop  offset="0" style="stop-color:#EF3F23"/>
				<stop  offset="6.490000e-02" style="stop-color:#F05523"/>
				<stop  offset="0.2284" style="stop-color:#F47B20"/>
				<stop  offset="0.3919" style="stop-color:#F8961D"/>
				<stop  offset="0.5523" style="stop-color:#FBAC18"/>
				<stop  offset="0.7091" style="stop-color:#FEBC12"/>
				<stop  offset="0.8603" style="stop-color:#FFC50B"/>
				<stop  offset="1" style="stop-color:#FFC808"/>
			</linearGradient>
			<path class="st1" d="M471.4,273.2c-6.4-33.1-12-48.8-27.5-76.1c-17-29.8-53.8-49.3-88-53.3c-32.5-4.1-64,2-96.9,5.7
				c-33,3.7-62.4,9.9-95.2,3.3c-30.6-6.4-68.5-24.4-82.2-46.9c15.4,30.7,48.4,66.2,79.8,89.7c17.5,12.2,38.2,24.3,59.6,28
				c22.5,4.9,45.3-3.5,69.3-3.5s61.6,15.2,73.5,37.6c-19.8,11.5-48.3,37.4-83,25.9c70,84.9,147.1-25.5,187.9-3.2L471.4,273.2z"/>
		</g>
	</g>
</g>
<g id="Ball">
	<g>
		<g>
			<path class="st2" d="M486.6,215.2c2.3,67.5-50.6,124-118.1,126.3c-67.5,2.3-124-50.6-126.3-118.1C240,156,292.9,99.4,360.3,97.2
				C427.8,94.9,484.3,147.8,486.6,215.2z"/>
			<path class="st2" d="M368.5,339.9c-66.5,2.2-122.4-50-124.6-116.5c-2.2-66.5,50-122.4,116.5-124.6c66.5-2.2,122.4,50,124.6,116.5
				C487.2,281.8,435,337.7,368.5,339.9L368.5,339.9z"/>
			<path class="st3" d="M340.4,244.7c-4.4-2-19.9-46.1-18.6-48.1c9.2-12.6,37.9-31.3,41.2-31.4c4.1-0.1,29.3,16.5,42.5,27.4
				c1.1,1.3-6.9,33.9-13.6,50.4C391,244.8,357.5,246.4,340.4,244.7z"/>
			
				<linearGradient id="SVGID_3_" gradientUnits="userSpaceOnUse" x1="307.1479" y1="260.4849" x2="297.8489" y2="303.2626" gradientTransform="matrix(0.9995 -3.360000e-02 -3.360000e-02 -0.9995 81.9895 532.2053)">
				<stop  offset="0" style="stop-color:#4D4D4D"/>
				<stop  offset="1" style="stop-color:#000000"/>
			</linearGradient>
			<path class="st4" d="M370.7,243.6c-11.5,0.4-22.5,0.2-29.8-0.5c-3.8-3.1-17.5-40.5-17.6-45.9c9.2-12.2,36.4-29.9,39.8-30.4
				c3.2,0,26.7,15,40.9,26.6c-0.2,4.5-7.1,33-13.4,48.5C389,242.4,382.7,243.2,370.7,243.6L370.7,243.6z"/>
		</g>
		<path class="st3" d="M400.7,111.5c0,0-5.8-8.6-15.6-11.9c-5-1.7-12.8-2.2-19.1-2.2l0-0.1c0,0-2.1,0-5.3,0.1
			c-3.2,0.1-5.3,0.2-5.3,0.2l0,0.1c-6.3,0.5-14,1.4-18.9,3.5c-9.5,3.9-14.8,12.9-14.8,12.9s21.9-0.1,39.8,11.3l0.1-0.4l0.1,0.4
			C378.8,112.9,400.7,111.5,400.7,111.5z"/>
		<path class="st3" d="M473,217.6c0,0,12.3-6.7,12.4-17c0-5.3-4.4-17.9-6.3-23.9c0,0-1.5-3-2.6-5.9c-1.1-3-2.1-4.7-2.1-4.7
			c-2.4-5.8-5.2-11.3-8.7-15.4c-6.7-7.8-20-8.9-20-8.9s8.1,19.7,1.8,38.9l0.8,0.9C466,196.7,473,217.6,473,217.6z"/>
		<path class="st3" d="M418.6,281.8c0,0,31.2-5.7,38.2-12.4c0,0,5.9,14.4,0.4,29.6c0,0-5.6,6.9-17.1,16
			c-11.4,9.1-23.1,14.5-23.1,14.5s-14-2.2-23.1-10.1c0,0,9.5-9.6,13.9-16.4C412.2,296.4,416.3,287.6,418.6,281.8z"/>
		
			<linearGradient id="SVGID_4_" gradientUnits="userSpaceOnUse" x1="346.5655" y1="234.0467" x2="359.1341" y2="212.0519" gradientTransform="matrix(0.9995 -3.360000e-02 -3.360000e-02 -0.9995 81.9895 532.2053)">
			<stop  offset="0" style="stop-color:#4D4D4D"/>
			<stop  offset="1" style="stop-color:#000000"/>
		</linearGradient>
		<path class="st5" d="M417.2,329.5c-1.5-0.3-13.9-2.6-22.2-9.6c1.9-1.9,9.8-10.1,13.6-16c4.5-7,10.6-20,11.3-20.6
			c1-1,26.2-3.7,37-12.5c1.1,3.1,5.8,13.9,1.2,26.8c-0.6,0.7-7.3,9-17.9,17.5C429.5,323.6,418.6,328.9,417.2,329.5L417.2,329.5z"/>
		<path class="st3" d="M274.1,274.7c0,0,7.4,5.4,18.8,7.9s22.3,2.6,22.3,2.6s1,7.1,8.8,16.7c7.8,9.5,15.9,18.6,18,20.2
			c0,0-16.1,12.3-22.1,11c0,0-15.5-6-25.2-13.1s-20.3-18.3-20.3-18.3s-2-10.9-1.6-15.5C273.1,281.6,274.1,274.7,274.1,274.7z"/>
		
			<linearGradient id="SVGID_5_" gradientUnits="userSpaceOnUse" x1="237.9131" y1="231.9397" x2="225.894" y2="216.9161" gradientTransform="matrix(0.9995 -3.360000e-02 -3.360000e-02 -0.9995 81.9895 532.2053)">
			<stop  offset="0" style="stop-color:#4D4D4D"/>
			<stop  offset="1" style="stop-color:#000000"/>
		</linearGradient>
		<path class="st6" d="M295.2,320.4c-9-6.5-19-16.9-20.1-18.1c-0.2-1.4-2-11.1-1.6-15.2c0.4-3.6,1-8.6,1.3-10.6
			c2.1,1.4,8.9,5.5,18.2,7.5c10,2.2,18.2,2.8,19.9,4.1c1.9,1.8,3.1,7.1,9.9,15.4c7.1,8.6,15.3,16.9,15.9,18.7
			c0.3,1.1-13.1,10.7-18.8,10.9C319.8,333.1,304.8,327.3,295.2,320.4z"/>
		<path class="st3" d="M258.1,225.1c0,0-13.3-8.6-15.4-16.5c0,0,2.5-21.3,6.2-29.7c3.7-8.4,8-17.2,8-17.2s8.2-11.1,20.5-13.4
			c0,0-0.6,14.9,0.3,21.2c0.8,6.4,2.5,15.4,4.1,17c0,0-8,7.5-12.8,14.2C264,207.5,258.7,220.7,258.1,225.1z"/>
		<g>
			
				<radialGradient id="SVGID_6_" cx="436.0094" cy="942.0623" r="45.6745" gradientTransform="matrix(2.7738 -9.340000e-02 -9.340000e-02 -2.7738 -760.164 2863.4648)" gradientUnits="userSpaceOnUse">
				<stop  offset="0" style="stop-color:#F2F2F2"/>
				<stop  offset="0.9396" style="stop-color:#D7D7D7"/>
				<stop  offset="0.967" style="stop-color:#B3B3B3"/>
			</radialGradient>
			<path class="st7" d="M361.9,126l1.5,38.6c0,0,11.5,4.6,22.1,12.5c9.9,7.4,20.5,15,20.5,15l40.4-11c0,0,7.1-23.1-3.3-41.6
				c0,0-16.9-21.2-42.4-28.1C400.7,111.5,377.2,115.3,361.9,126z"/>
			
				<radialGradient id="SVGID_7_" cx="436.0073" cy="942.0606" r="45.6777" gradientTransform="matrix(2.7738 -9.340000e-02 -9.340000e-02 -2.7738 -760.164 2863.4648)" gradientUnits="userSpaceOnUse">
				<stop  offset="0" style="stop-color:#F2F2F2"/>
				<stop  offset="0.9396" style="stop-color:#D7D7D7"/>
				<stop  offset="0.967" style="stop-color:#B3B3B3"/>
			</radialGradient>
			<path class="st8" d="M447.3,181.9l-40.7,11.6c0,0-2.1,13-5.6,25c-3.5,12-8,24.4-8,24.4l25.6,38.9c0,0,30.6-4.9,38.8-13.1
				c0,0,15.6-30.8,14.9-52C472.3,216.7,465,197.7,447.3,181.9z"/>
			
				<radialGradient id="SVGID_8_" cx="436.0096" cy="942.0634" r="45.6741" gradientTransform="matrix(2.7738 -9.340000e-02 -9.340000e-02 -2.7738 -760.164 2863.4648)" gradientUnits="userSpaceOnUse">
				<stop  offset="0" style="stop-color:#F2F2F2"/>
				<stop  offset="0.9396" style="stop-color:#D7D7D7"/>
				<stop  offset="0.967" style="stop-color:#B3B3B3"/>
			</radialGradient>
			<path class="st9" d="M277,148.7c0,0,5.7-12.2,14.8-18.7c9.1-6.5,22-14.3,29.4-14.8s17.9,2,20.4,2.7c2.8,0.7,15.7,5.3,19.2,8.4
				c0.8,0.7,1.5,38.6,1.5,38.6s-12,6.1-21.1,13c-10.3,7.8-18.9,16.6-20.4,18.9c0,0-29.2-8.5-38.9-9.8c0,0-2.5-0.9-4-13.9
				C276.5,160.1,277,148.7,277,148.7z"/>
			
				<radialGradient id="SVGID_9_" cx="436.0091" cy="942.0628" r="45.6803" gradientTransform="matrix(2.7738 -9.340000e-02 -9.340000e-02 -2.7738 -760.164 2863.4648)" gradientUnits="userSpaceOnUse">
				<stop  offset="0" style="stop-color:#F2F2F2"/>
				<stop  offset="0.9396" style="stop-color:#D7D7D7"/>
				<stop  offset="0.967" style="stop-color:#B3B3B3"/>
			</radialGradient>
			<path class="st10" d="M274.1,274.7c0,0-8.3-11.8-11.5-26.7c-3.2-14.9-3.9-22.4-3.9-22.4s2.5-11.1,8.4-20.2s14.5-17.9,14.5-17.9
				s13.7,2.6,16.6,3.4c2.9,0.8,22.8,6.3,22.8,6.3s2.3,10.1,6.2,21c3.9,10.9,9.5,24.5,12.2,26.8c0,0-23.1,37.5-23.7,39.3
				c0,0,0.2,0.4-2.9,0.5c-3.1,0.1-20.7-2.6-25.6-4C282.5,279.5,274.1,274.7,274.1,274.7z"/>
			
				<radialGradient id="SVGID_10_" cx="436.008" cy="942.0651" r="45.6811" gradientTransform="matrix(2.7738 -9.340000e-02 -9.340000e-02 -2.7738 -760.164 2863.4648)" gradientUnits="userSpaceOnUse">
				<stop  offset="0" style="stop-color:#F2F2F2"/>
				<stop  offset="0.9396" style="stop-color:#D7D7D7"/>
				<stop  offset="0.967" style="stop-color:#B3B3B3"/>
			</radialGradient>
			<path class="st11" d="M392.3,243.9c0,0-18.1,1.9-25.4,2.2s-26.6-0.5-26.6-0.5s-11.5,17.9-13.4,21.1c-1.9,3.2-10.9,19-10.9,19
				s0.4,6,6.7,14.4c6.2,8.4,19.8,22.1,19.8,22.1s14.7,2.3,24.9,2.3c14.4,0,26.5-4.9,26.5-4.9s16.2-19.5,18.5-24.7s5.3-12.8,5.3-12.8
				S395.8,248.4,392.3,243.9z"/>
		</g>
		<g>
			
				<radialGradient id="SVGID_11_" cx="454.3114" cy="963.8801" r="65.7371" gradientTransform="matrix(2.7738 -9.340000e-02 -9.340000e-02 -2.7738 -760.164 2863.4648)" gradientUnits="userSpaceOnUse">
				<stop  offset="0" style="stop-color:#FFFFFF"/>
				<stop  offset="0.1319" style="stop-color:#F2F2F2"/>
				<stop  offset="1" style="stop-color:#E6E6E6"/>
			</radialGradient>
			<path class="st12" d="M407.2,189.4c-2.4-1.7-11.5-8.3-19.9-14.5c-9-6.7-18.5-11-21.5-12.3l-1.4-36.7
				c13.9-9.3,34.3-13.2,37.1-13.7c23.6,6.4,39.8,25.8,41.1,27.3c8.8,15.7,4.4,35.1,3.3,39.3L407.2,189.4L407.2,189.4z"/>
			
				<radialGradient id="SVGID_12_" cx="454.3111" cy="963.8805" r="65.7421" gradientTransform="matrix(2.7738 -9.340000e-02 -9.340000e-02 -2.7738 -760.164 2863.4648)" gradientUnits="userSpaceOnUse">
				<stop  offset="0" style="stop-color:#F2F2F2"/>
				<stop  offset="0.6593" style="stop-color:#E6E6E6"/>
				<stop  offset="1" style="stop-color:#DADADA"/>
			</radialGradient>
			<path class="st13" d="M420.6,279.6l-24.6-37.4c1-2.9,4.7-13.5,7.7-23.7c2.9-10,4.9-20.9,5.5-24.2l38.9-11.1
				c15.6,14.3,22.9,31.1,23.8,33.3c0.5,19.5-13.2,47.9-14.6,50.7C450.2,274.2,425.9,278.7,420.6,279.6L420.6,279.6z"/>
			
				<radialGradient id="SVGID_13_" cx="437.2258" cy="944.9778" r="50.5255" gradientTransform="matrix(2.7738 -9.340000e-02 -9.340000e-02 -2.7738 -760.164 2863.4666)" gradientUnits="userSpaceOnUse">
				<stop  offset="0" style="stop-color:#F2F2F2"/>
				<stop  offset="0.6593" style="stop-color:#E6E6E6"/>
				<stop  offset="1" style="stop-color:#B2B3B6"/>
			</radialGradient>
			<path class="st14" d="M420.6,279.6c-1.5,0.2-8.6-13.1-8.9-14.9c5-0.4,9.4-2.4,14.2-3.4c3.5-0.7,14.3,1.9,12.2-4.6
				c11.3,1.6,21.3-2,27.9-11.6c-1.3,5.7-4.3,17.9-8.8,22.1C450.2,274.2,426,278.7,420.6,279.6z"/>
			
				<radialGradient id="SVGID_14_" cx="454.3113" cy="963.8808" r="65.7377" gradientTransform="matrix(2.7738 -9.340000e-02 -9.340000e-02 -2.7738 -760.164 2863.4648)" gradientUnits="userSpaceOnUse">
				<stop  offset="0" style="stop-color:#FFFFFF"/>
				<stop  offset="0.1319" style="stop-color:#F2F2F2"/>
				<stop  offset="1" style="stop-color:#E6E6E6"/>
			</radialGradient>
			<path class="st15" d="M319.8,193.9c-5.3-1.5-28.5-8.1-37.5-9.4c-0.5-0.6-2-3.2-3.1-12.5c-1.3-11.5-1-21.8-0.9-23.8
				c0.9-1.8,6.3-12.2,14.2-17.8c9.4-6.7,21.8-14.1,28.5-14.6c0.3,0,0.6,0,1-0.1c6.9-0.2,16.2,2,18.9,2.7c3,0.8,14.5,5,18.2,7.7
				c0.5,3.3,1,23.6,1.3,36.8c-3,1.6-12.7,6.8-20.5,12.6C330.5,182.6,322.5,190.6,319.8,193.9L319.8,193.9z"/>
			
				<radialGradient id="SVGID_15_" cx="454.3107" cy="963.8833" r="65.7441" gradientTransform="matrix(2.7738 -9.340000e-02 -9.340000e-02 -2.7738 -760.164 2863.4648)" gradientUnits="userSpaceOnUse">
				<stop  offset="0" style="stop-color:#F2F2F2"/>
				<stop  offset="0.6593" style="stop-color:#E6E6E6"/>
				<stop  offset="1" style="stop-color:#DADADA"/>
			</radialGradient>
			<path class="st16" d="M311.7,283.3c-2.8,0.1-20-2.5-25.1-4c-4.1-1.2-11-4.9-12.6-5.8c-1.3-1.9-8.2-12.7-11-25.8
				c-2.8-13.1-3.6-20.6-3.8-22c0.4-1.7,2.9-11.5,8.1-19.4c4.9-7.4,11.7-14.9,13.8-17.1c3,0.6,13.2,2.5,15.6,3.2
				c2.5,0.7,17.9,5,21.9,6.1c0.7,2.8,2.9,11.3,6.1,20.3c1.3,3.7,7.7,21.1,11.7,26.4c-5.6,9.2-20.4,33.3-22.9,37.9
				C313.1,283.2,312.5,283.2,311.7,283.3L311.7,283.3z"/>
			
				<radialGradient id="SVGID_16_" cx="343.9759" cy="366.9922" r="92.4623" gradientTransform="matrix(1.5159 5.680000e-02 5.680000e-02 -1.5159 -177.9377 738.2158)" gradientUnits="userSpaceOnUse">
				<stop  offset="0" style="stop-color:#F2F2F2"/>
				<stop  offset="0.6593" style="stop-color:#E6E6E6"/>
				<stop  offset="1" style="stop-color:#B2B3B6"/>
			</radialGradient>
			<path class="st17" d="M274,273.5c-2.8-4.2-11.2-15.4-2.1-16.1c5.6-0.5,9.8,6.8,15.2,6.1c1.6-0.2,3.8-3,5.4-3.7
				c2-0.9,4.4-1.2,6.6-1.5c3.7-0.4,7.4-0.3,11,0.2c3.8,0.5,14.5-0.7,15.3,3.9c0.5,2.9-4.1,7.2-5.5,9.5c-0.8,1.4-5.1,11-6.6,11.2
				c-0.3,0-0.8,0.1-1.7,0.1c-2.8,0.1-20-2.5-25.1-4C282.5,278.2,275.5,274.4,274,273.5z"/>
			
				<radialGradient id="SVGID_17_" cx="454.31" cy="963.8864" r="65.7485" gradientTransform="matrix(2.7738 -9.340000e-02 -9.340000e-02 -2.7738 -760.164 2863.4648)" gradientUnits="userSpaceOnUse">
				<stop  offset="0" style="stop-color:#F2F2F2"/>
				<stop  offset="0.6593" style="stop-color:#E6E6E6"/>
				<stop  offset="1" style="stop-color:#DADADA"/>
			</radialGradient>
			<path class="st18" d="M369.4,323.7c-0.6,0-1.3,0-2,0c-8.9,0-21.4-1.8-24.1-2.2c-2.2-2.3-13.7-14.1-19.2-21.6
				c-4.9-6.6-6-11.6-6.3-13.1c1.5-2.6,8.9-15.6,10.6-18.5c1.6-2.7,10.7-16.8,12.9-20.2c4,0.1,19.3,0.6,25.8,0.4
				c6.4-0.2,20.8-1.7,24.6-2.1c4.3,5.9,21.3,31.9,24.3,36.6c-0.8,2.1-3.2,7.8-5,12c-1.7,4-13.3,18.4-18,24
				C391,319.8,381,323.3,369.4,323.7L369.4,323.7z"/>
			
				<radialGradient id="SVGID_18_" cx="437.225" cy="944.9776" r="50.5278" gradientTransform="matrix(2.7738 -9.340000e-02 -9.340000e-02 -2.7738 -760.164 2863.4666)" gradientUnits="userSpaceOnUse">
				<stop  offset="0" style="stop-color:#F2F2F2"/>
				<stop  offset="0.6593" style="stop-color:#E6E6E6"/>
				<stop  offset="1" style="stop-color:#B2B3B6"/>
			</radialGradient>
			<path class="st19" d="M369.4,323.7c-0.6,0-1.3,0-2,0c-8.9,0-21.4-1.8-24.1-2.2c-2.2-2.3-13.7-14.1-19.2-21.6
				c-4.9-6.6-6-11.6-6.3-13.1c3.4-6,7.2-17.3,12.7-21.5c6.2-4.8,16.5-1,23.6-0.2c14.7,1.7,28.4-2,42.9-1.3c10,0.5,13.8,11.3,19,19.2
				c-0.8,2.1-3.2,7.8-5,12c-1.7,4-13.3,18.4-18,24C391,319.8,381,323.3,369.4,323.7z"/>
		</g>
		<path class="st20" d="M334.4,328.4c1.9-1.2,6.3-4.5,7.4-4.8c1.2-0.3,17.1,1.8,21,1.9c10.9,0.3,26.8-2.6,30.8-4.8
			c0,0,0.9,0.6,2.1,1.5c1.2,0.9,12.1,6.8,19.3,7.8c0,0-19.5,11.8-48,11.8c-28.5,0-44.7-7.8-44.7-7.8S326.9,333.1,334.4,328.4z"/>
		
			<radialGradient id="SVGID_19_" cx="437.2248" cy="944.968" r="50.5185" gradientTransform="matrix(2.7738 -9.340000e-02 -9.340000e-02 -2.7738 -760.164 2863.4666)" gradientUnits="userSpaceOnUse">
			<stop  offset="0" style="stop-color:#F2F2F2"/>
			<stop  offset="0.6593" style="stop-color:#E6E6E6"/>
			<stop  offset="1" style="stop-color:#B2B3B6"/>
		</radialGradient>
		<path class="st21" d="M370,341.7c-1.1,0-2.3,0.1-3.4,0.1c-22.2,0-37-4.8-42.2-6.8c2.1-0.7,5.6-2.2,10.2-5.1c0.6-0.4,1.4-1,2.4-1.6
			c1.6-1.1,4.2-2.9,4.8-3c0,0,0,0,0.1,0c1.1,0,5.8,0.5,10.3,0.9c4.2,0.5,8.6,0.9,10.4,1c1.4,0,3,0,4.6,0c10-0.3,22-2.5,25.8-4.7
			c0.1-0.1,0.2-0.2,0.3-0.3c0.1,0,0.1,0.1,0.3,0.2c1.1,0.9,12.7,7.3,21,8.1C415.2,331.5,391.1,341,370,341.7L370,341.7z"/>
		<path class="st20" d="M242.6,209.7c0,0,3.2,9.4,15.6,16.5c0,0,1.1,13.8,4,23.8c2.9,10.1,7.8,21.1,11.3,25.4c0,0-1.2,8.5-1.4,12.8
			s1.7,13.4,1.7,13.4s-18.3-16.6-25.5-42.4C239.9,229.9,242.6,209.7,242.6,209.7z"/>
		
			<radialGradient id="SVGID_20_" cx="433.6348" cy="940.8199" r="43.0139" gradientTransform="matrix(2.7738 -9.340000e-02 -9.340000e-02 -2.7738 -760.164 2863.4648)" gradientUnits="userSpaceOnUse">
			<stop  offset="0" style="stop-color:#F2F2F2"/>
			<stop  offset="0.9396" style="stop-color:#D7D7D7"/>
			<stop  offset="0.967" style="stop-color:#B3B3B3"/>
		</radialGradient>
		<path class="st22" d="M271.9,299.8c-4.8-4.9-17.7-19.7-23.5-40.2c-6.3-22.4-6.2-39.6-5.8-46.3c1.9,3.4,6,9.1,14.2,13.9
			c0.2,2.4,1.4,14.5,4,23.6c2.9,10,7.7,20.9,11.2,25.4c-0.2,1.7-1.2,8.7-1.4,12.5C270.6,291.7,271.4,296.8,271.9,299.8L271.9,299.8z
			"/>
		
			<radialGradient id="SVGID_21_" cx="343.9799" cy="366.9792" r="92.4399" gradientTransform="matrix(1.5159 5.680000e-02 5.680000e-02 -1.5159 -177.9377 738.2158)" gradientUnits="userSpaceOnUse">
			<stop  offset="0" style="stop-color:#F2F2F2"/>
			<stop  offset="0.6593" style="stop-color:#E6E6E6"/>
			<stop  offset="1" style="stop-color:#B2B3B6"/>
		</radialGradient>
		<path class="st23" d="M271.9,299.8c-4.8-4.9-25.9-24.8-29.2-70.2c2.3,7.7,3.7,35.3,21.8,31.9c2.5,6.2,5.3,11.8,7.5,14.7
			c-0.2,1.7-1.2,8.7-1.4,12.5C270.6,291.7,271.4,296.8,271.9,299.8L271.9,299.8z"/>
		<path class="st20" d="M257.6,159.7c0,0,7-9.2,19.2-12c0,0,5.9-12.9,18.5-21.1s23.3-12.3,24.9-12.4c0,0,6.8-9.5,15.9-13.7
			c0,0-22.2,2.6-45.3,20.2C267.8,138.3,257.6,159.7,257.6,159.7z"/>
		
			<linearGradient id="SVGID_22_" gradientUnits="userSpaceOnUse" x1="188.6211" y1="395.7018" x2="266.8188" y2="395.7018" gradientTransform="matrix(0.9995 -3.360000e-02 -3.360000e-02 -0.9995 81.9895 532.2053)">
			<stop  offset="0" style="stop-color:#FFFFFF"/>
			<stop  offset="1" style="stop-color:#B3B3B3"/>
		</linearGradient>
		<path class="st24" d="M258.1,157.7c4-6.9,15.4-23.6,32.4-36.7c17.6-13.4,36.9-19.2,43.9-20.7c-7,4.3-14.2,12-15.1,13.3
			c-2.5,0.4-13,4.7-24.9,12.4c-11.7,7.5-17.7,19.3-18.6,21.1c-7.6,1.8-11.5,4.8-14.6,7.8L258.1,157.7z"/>
		<path class="st20" d="M401.1,110.8c0,0,13.6,3.8,22.5,10.2c8.9,6.4,18.7,14.8,21.3,19.5c0,0,13.3,2.7,18.4,7
			c0,0-5.1-12.1-30.9-30.5c-25.8-18.4-50.2-18.6-50.2-18.6s6.6,1.4,11.9,5.7C396.7,106,401.1,110.8,401.1,110.8z"/>
		
			<linearGradient id="SVGID_23_" gradientUnits="userSpaceOnUse" x1="319.7085" y1="398.0798" x2="393.0598" y2="398.0798" gradientTransform="matrix(0.9995 -3.360000e-02 -3.360000e-02 -0.9995 81.9895 532.2053)">
			<stop  offset="0" style="stop-color:#FFFFFF"/>
			<stop  offset="1" style="stop-color:#B3B3B3"/>
		</linearGradient>
		<path class="st25" d="M462.3,145.6c-5.5-3.2-14.9-5.4-16.5-5.7c-2.9-4.9-13-13.4-21.3-19.4c-8.4-6-21-9.8-22.5-10.2
			c-0.7-0.8-4.5-4.8-7-6.8c-2.5-2-5.3-3.4-7.6-4.3c8.3,1,26.5,4.7,45.3,18.2C452.1,131.1,459.8,141.5,462.3,145.6L462.3,145.6z"/>
		<path class="st20" d="M473.1,218.4c0,0,10.8-6.3,12.5-14.4c0,0,4.3,22.2-2.9,47.5c0,0-8.1,29.3-24.1,45.6c0,0,2.6-12,1.2-19.4
			c-1.4-7.4-2.3-8.3-2.3-8.3s6.3-11.3,9.7-21.9C472.3,231.8,473.1,218.4,473.1,218.4z"/>
		<path class="st26" d="M460.6,294.4c0.7-4,1.7-11.6,0.7-16.9c-1-5.1-1.7-7.3-2.2-8.2c1.2-2.1,6.5-12.2,9.5-21.6
			c4.5-14.1,5.7-26.6,5.9-29c1.7-1,8.5-5.5,11.4-11.5c0.9,7,2.1,24.6-3.3,44C482.5,251.4,475,278.1,460.6,294.4L460.6,294.4z"/>
		
			<radialGradient id="SVGID_24_" cx="343.976" cy="366.9832" r="92.4375" gradientTransform="matrix(1.5159 5.680000e-02 5.680000e-02 -1.5159 -177.9377 738.2158)" gradientUnits="userSpaceOnUse">
			<stop  offset="0" style="stop-color:#F2F2F2"/>
			<stop  offset="0.6593" style="stop-color:#E6E6E6"/>
			<stop  offset="1" style="stop-color:#B2B3B6"/>
		</radialGradient>
		<path class="st27" d="M482.6,251.1c-0.1,0.3-7.6,26.9-22,43.2c0.7-4,1.7-11.6,0.7-16.9c-1-5.1-1.7-7.3-2.2-8.2
			c2.6-4.8,4.2-12.6,7.7-16.5s5.6-2.1,9.7-5.4c3.1-2.6,5.1-6.6,6.8-10C482,240,483.6,247.6,482.6,251.1z"/>
		
			<linearGradient id="SVGID_25_" gradientUnits="userSpaceOnUse" x1="269.6176" y1="356.786" x2="228.1979" y2="390.0127" gradientTransform="matrix(0.9995 -3.360000e-02 -3.360000e-02 -0.9995 81.9895 532.2053)">
			<stop  offset="0" style="stop-color:#FFFFFF"/>
			<stop  offset="1" style="stop-color:#E6E6E6"/>
		</linearGradient>
		<path class="st28" d="M283.7,178.3c0,0,24.2,8.2,32.7,8.8c8.5,0.7,21.2-15.8,38.1-25.1c5.6-3.1-0.4-27.6,0.1-32
			c0.5-4.1,0.9-5.9-1.6-7s-22.5-8.9-36.2-5.4s-32.9,18.7-37.3,28.2C275.1,155.4,279.9,177.2,283.7,178.3z"/>
		<path class="st29" d="M275.5,151.1c0,0-2.2-0.2-2.8,1.7c-0.6,1.9-0.6,20.4,0.1,23.2c0.7,2.8,3.1,9.9,4.4,9.9
			c1.2,0-2.8-7.7-2.4-16.5C275.2,160.5,275.5,151.1,275.5,151.1z"/>
		<path class="st29" d="M325.6,112.7c0,0,8.1-2.2,14.7-0.8c6.6,1.3,17.1,5.7,19.4,8.4s-0.9,2.2-2.8,1s-9.6-5.9-15.9-6.7
			C334.8,114,327.2,112.3,325.6,112.7z"/>
		<path class="st29" d="M324.1,196.4c0,0,18.8-20.1,37.9-28.9c0,0,3.1-0.4-7.9,6.2C343,180.4,320.2,201.6,324.1,196.4z"/>
		
			<linearGradient id="SVGID_26_" gradientUnits="userSpaceOnUse" x1="406.6341" y1="319.1916" x2="391.028" y2="365.0541" gradientTransform="matrix(0.9995 -3.360000e-02 -3.360000e-02 -0.9995 81.9895 532.2053)">
			<stop  offset="0" style="stop-color:#4D4D4D"/>
			<stop  offset="1" style="stop-color:#000000"/>
		</linearGradient>
		<path class="st30" d="M451.5,143.9c0,0,7.5,3.8,9.8,8.4c2.4,4.6,19.1,44.5,18.4,52.6c-0.7,7.2-5,10.5-5,10.5s11.3-8.8,11-14.6
			c-0.4-6.8-14.1-42.9-20-49S456.6,145,451.5,143.9z"/>
		<path class="st31" d="M279.8,191.2c0,0,0-1.5,1.2-1.9c1.3-0.4,37.7,9.1,38.3,9.8c0.6,0.7,0.8,3.3,0.8,3.3s-11.7-5.3-23.5-7.5
			C284.8,192.7,279.8,191.2,279.8,191.2z"/>
	</g>
</g>
<g id="BAS">
	<g>
		<path class="st32" d="M503.7,323.6c5.5,0,10.3,0.9,13.8,3c3.5,2,5.7,5.5,5.1,11.1h53.8c3.8-28.6-11.8-51.7-59.8-51.7
			c-39.3,0-73,14.4-86,43.1l-5.3-50h-57.7l-68.2,104.2c-3.2-3-7.3-5.2-12.4-6.6c12.9-6.6,27.8-18.8,32.4-35.6
			c8.9-32.4-19.7-41.1-58.7-41.1h-82.7l-44.8,163.3h84.4c30.4,0,55.4-5.8,71.5-21h27.2l12.4-21.5h56.5l0.8,21.5h31.6
			c10.6,9.5,27.4,15.5,49.6,15.5c47.6,0,86-18.4,96.4-56.3c16.3-59.4-87.4-44.2-80.6-68.7C484.7,327,491.2,323.6,503.7,323.6z
			 M253.9,410.2c-3.4,12.2-14.7,15-28.6,15h-24.8l8.3-30.2h18C244.8,395,257.8,396,253.9,410.2z M263.9,351
			c-2.6,9.5-12.1,14.3-23.4,14.3h-23.6l7.5-27.2h19.9C256.3,338.1,267.3,338.3,263.9,351z M349,386.8l33.6-58.5l2.2,58.5H349z
			 M507.6,408.2c-2.1,7.7-12.7,12-26.9,12c-5.5,0-11.2-1.4-15-4.1c-4.1-2.7-6.2-7-5.8-12.9h-21.5l-3.1-29.7
			C458.2,394.4,512.6,390.1,507.6,408.2z"/>
		<path class="st33" d="M503.7,323.6c5.5,0,10.3,0.9,13.8,3c3.5,2,5.7,5.5,5.1,11.1h53.8c3.8-28.6-11.8-51.7-59.8-51.7
			c-39.3,0-73,14.4-86,43.1l-5.3-50h-57.7l-68.2,104.2c-3.2-3-7.3-5.2-12.4-6.6c12.9-6.6,27.8-18.8,32.4-35.6
			c8.9-32.4-19.7-41.1-58.7-41.1h-82.7l-44.8,163.3h84.4c30.4,0,55.4-5.8,71.5-21h27.2l12.4-21.5h56.5l0.8,21.5h31.6
			c10.6,9.5,27.4,15.5,49.6,15.5c47.6,0,86-18.4,96.4-56.3c16.3-59.4-87.4-44.2-80.6-68.7C484.7,327,491.2,323.6,503.7,323.6z
			 M253.9,410.2c-3.4,12.2-14.7,15-28.6,15h-24.8l8.3-30.2h18C244.8,395,257.8,396,253.9,410.2z M263.9,351
			c-2.6,9.5-12.1,14.3-23.4,14.3h-23.6l7.5-27.2h19.9C256.3,338.1,267.3,338.3,263.9,351z M349,386.8l33.6-58.5l2.2,58.5H349z
			 M507.6,408.2c-2.1,7.7-12.7,12-26.9,12c-5.5,0-11.2-1.4-15-4.1c-4.1-2.7-6.2-7-5.8-12.9h-21.5l-3.1-29.7
			C458.2,394.4,512.6,390.1,507.6,408.2z"/>
		<radialGradient id="SVGID_27_" cx="383" cy="327" r="278.7723" gradientUnits="userSpaceOnUse">
			<stop  offset="0" style="stop-color:#FFC80A"/>
			<stop  offset="1" style="stop-color:#F15E22"/>
		</radialGradient>
		<path class="st34" d="M503.7,323.6c5.5,0,10.3,0.9,13.8,3c3.5,2,5.7,5.5,5.1,11.1h53.8c3.8-28.6-11.8-51.7-59.8-51.7
			c-39.3,0-73,14.4-86,43.1l-5.3-50h-57.7l-68.2,104.2c-3.2-3-7.3-5.2-12.4-6.6c12.9-6.6,27.8-18.8,32.4-35.6
			c8.9-32.4-19.7-41.1-58.7-41.1h-82.7l-44.8,163.3h84.4c30.4,0,55.4-5.8,71.5-21h27.2l12.4-21.5h56.5l0.8,21.5h31.6
			c10.6,9.5,27.4,15.5,49.6,15.5c47.6,0,86-18.4,96.4-56.3c16.3-59.4-87.4-44.2-80.6-68.7C484.7,327,491.2,323.6,503.7,323.6z
			 M253.9,410.2c-3.4,12.2-14.7,15-28.6,15h-24.8l8.3-30.2h18C244.8,395,257.8,396,253.9,410.2z M263.9,351
			c-2.6,9.5-12.1,14.3-23.4,14.3h-23.6l7.5-27.2h19.9C256.3,338.1,267.3,338.3,263.9,351z M349,386.8l33.6-58.5l2.2,58.5H349z
			 M507.6,408.2c-2.1,7.7-12.7,12-26.9,12c-5.5,0-11.2-1.4-15-4.1c-4.1-2.7-6.2-7-5.8-12.9h-21.5l-3.1-29.7
			C458.2,394.4,512.6,390.1,507.6,408.2z"/>
	</g>
</g>
</svg>
